<svg id="CoCode" xmlns="http://www.w3.org/2000/svg" viewBox="0 0 410.55 192.26"><defs><style>.cls-1{fill:#231f20;}</style></defs><rect class="cls-1" x="274.85" y="153.76" width="17.66" height="17.66"/><rect class="cls-1" x="296.05" y="174.26" width="17.66" height="17.66"/><rect class="cls-1" x="317.47" y="153.76" width="17.66" height="17.66"/><rect class="cls-1" x="317.47" y="133.72" width="17.66" height="17.66"/><rect class="cls-1" x="296.05" y="133.72" width="17.66" height="17.66"/><rect class="cls-1" x="317.47" y="113.51" width="17.66" height="17.66"/><polygon class="cls-1" points="275.93 151.24 292.51 151.24 292.51 134.66 275.93 151.24"/><polygon class="cls-1" points="317.47 191.31 317.47 174.26 334.52 174.26 317.47 191.31"/><polygon class="cls-1" points="292.51 190.84 292.51 174.26 275.93 174.26 292.51 190.84"/><rect class="cls-1" x="393.16" y="139.22" width="17.4" height="11.44"/><rect class="cls-1" x="371.7" y="119.52" width="17.4" height="17.4"/><rect class="cls-1" x="350.72" y="139.22" width="17.4" height="11.44"/><rect class="cls-1" x="350.86" y="153.9" width="17.4" height="17.4"/><rect class="cls-1" x="392.38" y="174.81" width="17.4" height="17.4"/><rect class="cls-1" x="371.81" y="174.83" width="17.4" height="17.4"/><polygon class="cls-1" points="393.16 120.12 393.16 136.92 409.96 136.92 393.16 120.12"/><polygon class="cls-1" points="393.16 165.27 393.16 153.84 410.55 153.84 393.16 165.27"/><polygon class="cls-1" points="367.89 120.51 367.89 136.92 351.48 136.92 367.89 120.51"/><polygon class="cls-1" points="368.32 192.26 368.32 174.67 350.74 174.67 368.32 192.26"/><rect class="cls-1" x="225" y="174.22" width="14.99" height="16.64"/><rect class="cls-1" x="206.97" y="174.22" width="14.99" height="16.64"/><rect class="cls-1" x="187.15" y="155.45" width="16.64" height="16.64"/><rect class="cls-1" x="187.15" y="136.82" width="16.64" height="16.64"/><rect class="cls-1" x="206.95" y="118.09" width="14.99" height="16.64"/><rect class="cls-1" x="224.99" y="118.09" width="14.99" height="16.64"/><rect class="cls-1" x="242.94" y="136.76" width="16.64" height="16.64"/><rect class="cls-1" x="242.94" y="155.54" width="16.64" height="16.64"/><polygon class="cls-1" points="243.04 118.19 243.04 134.63 259.48 134.63 243.04 118.19"/><polygon class="cls-1" points="203.9 117.99 203.9 134.84 187.04 134.84 203.9 117.99"/><polygon class="cls-1" points="203.92 190.99 203.92 174.08 187.02 174.08 203.92 190.99"/><polygon class="cls-1" points="243.04 190.75 243.04 174.32 259.48 174.32 243.04 190.75"/><rect class="cls-1" x="59.36" y="0.61" width="27.41" height="27.41"/><rect class="cls-1" x="11.22" y="64.22" width="27.41" height="27.41"/><rect class="cls-1" x="95.21" y="0.2" width="27.41" height="27.41"/><rect class="cls-1" x="95.21" y="164.43" width="27.41" height="27.41"/><rect class="cls-1" x="46.42" y="130.75" width="27.41" height="27.41"/><rect class="cls-1" x="35.13" y="97.26" width="27.41" height="27.41"/><rect class="cls-1" x="59.36" y="164.43" width="27.41" height="27.41"/><rect class="cls-1" x="131.06" y="0.41" width="27.41" height="27.41"/><rect class="cls-1" x="131.06" y="164.43" width="27.41" height="27.41"/><rect class="cls-1" x="0.41" y="97.31" width="27.41" height="27.41"/><rect class="cls-1" x="47.78" y="64.22" width="27.41" height="27.41"/><rect class="cls-1" y="32.57" width="27.41" height="27.41"/><polygon class="cls-1" points="50.93 191.84 50.93 164.43 23.52 164.43 50.93 191.84"/><polygon class="cls-1" points="50.93 0 50.93 27.41 23.52 27.41 50.93 0"/><rect class="cls-1" x="10.56" y="130.46" width="27.41" height="27.41"/><rect class="cls-1" x="34.81" y="32.57" width="27.41" height="27.41"/><rect class="cls-1" x="82.27" y="130.61" width="27.41" height="27.41"/><rect class="cls-1" x="69.92" y="32.87" width="26.8" height="26.8"/><rect class="cls-1" x="224.49" y="87.49" width="14.99" height="16.64"/><rect class="cls-1" x="206.46" y="87.49" width="14.99" height="16.64"/><rect class="cls-1" x="186.64" y="68.76" width="16.64" height="16.64"/><rect class="cls-1" x="186.64" y="50.16" width="16.64" height="16.64"/><rect class="cls-1" x="206.44" y="31.45" width="14.99" height="16.64"/><rect class="cls-1" x="224.48" y="31.45" width="14.99" height="16.64"/><rect class="cls-1" x="242.42" y="50.1" width="16.64" height="16.64"/><rect class="cls-1" x="242.42" y="68.84" width="16.64" height="16.64"/><polygon class="cls-1" points="242.53 31.55 242.53 47.99 258.96 47.99 242.53 31.55"/><polygon class="cls-1" points="203.38 31.35 203.38 48.2 186.53 48.2 203.38 31.35"/><polygon class="cls-1" points="203.41 104.26 203.41 87.36 186.5 87.36 203.41 104.26"/><polygon class="cls-1" points="242.53 104.03 242.53 87.59 258.96 87.59 242.53 104.03"/><rect class="cls-1" x="371.81" y="153.9" width="17.4" height="11.44"/></svg>